<?xml version="1.0" encoding="UTF-8" standalone="no"?>
<!-- Created with Inkscape (http://www.inkscape.org/) -->

<svg
   version="1.1"
   id="svg1"
   width="747.99927"
   height="451.16699"
   viewBox="0 0 747.99927 451.167"
   xmlns="http://www.w3.org/2000/svg"
   xmlns:svg="http://www.w3.org/2000/svg">
  <defs
     id="defs1" />
  <g
     id="g1"
     transform="matrix(1.9443688,0,0,1.9455565,-6.573685,-0.00317888)"
     style="stroke-width:0.514149">
    <path
       id="path1"
       d="M 0,-113.38727 H 170.08092 V 0 H 0 Z"
       style="fill:none;stroke:#000000;stroke-width:0.614681;stroke-linecap:butt;stroke-linejoin:miter;stroke-miterlimit:10;stroke-dasharray:none;stroke-opacity:1"
       transform="matrix(1.3333333,0,0,-1.3333333,81.292,44.450667)" />
    <text
       id="text1"
       xml:space="preserve"
       transform="matrix(1.3333333,0,0,1.3333333,85.985333,57.701333)"
       style="stroke-width:0.514149"><tspan
         id="tspan1"
         style="font-variant:normal;font-weight:700;font-size:8.9663px;font-family:Arial;writing-mode:lr-tb;fill:#000000;fill-opacity:1;fill-rule:nonzero;stroke:none;stroke-width:0.514149"
         x="0"
         y="0">cell_r_c</tspan></text>
    <path
       id="path2"
       d="M 99.21384,-25.51195 H 45.35509 v -13.46467 h 53.85875 z"
       style="fill:#ffccc4;fill-opacity:1;fill-rule:nonzero;stroke:#000000;stroke-width:0.307337;stroke-linecap:butt;stroke-linejoin:miter;stroke-miterlimit:10;stroke-dasharray:none;stroke-opacity:1"
       transform="matrix(1.3333333,0,0,-1.3333333,81.292,44.450667)" />
    <path
       id="path3"
       d="M 99.21384,-38.97662 H 45.35509 v -13.46466 h 53.85875 z"
       style="fill:#ffccc4;fill-opacity:1;fill-rule:nonzero;stroke:#000000;stroke-width:0.307337;stroke-linecap:butt;stroke-linejoin:miter;stroke-miterlimit:10;stroke-dasharray:none;stroke-opacity:1"
       transform="matrix(1.3333333,0,0,-1.3333333,81.292,44.450667)" />
    <path
       id="path4"
       d="M 99.21384,-52.44128 H 45.35509 v -15.48523 h 53.85875 z"
       style="fill:#808080;fill-opacity:1;fill-rule:nonzero;stroke:#000000;stroke-width:0.307337;stroke-linecap:butt;stroke-linejoin:miter;stroke-miterlimit:10;stroke-dasharray:none;stroke-opacity:1"
       transform="matrix(1.3333333,0,0,-1.3333333,81.292,44.450667)" />
    <text
       id="text4"
       xml:space="preserve"
       transform="matrix(1.2666667,0,0,1.2666667,175.91673,119.9164)"
       style="stroke-width:0.514149"><tspan
         id="tspan4"
         style="font-variant:normal;font-weight:normal;font-size:9.9626px;font-family:'Liberation Mono';writing-mode:lr-tb;fill:#000000;fill-opacity:1;fill-rule:nonzero;stroke:none;stroke-width:0.514149"
         x="0"
         y="0">.</tspan><tspan
         id="tspan5"
         style="font-variant:normal;font-weight:normal;font-size:9.9626px;font-family:'Liberation Mono';writing-mode:lr-tb;fill:#000000;fill-opacity:1;fill-rule:nonzero;stroke:none;stroke-width:0.514149"
         x="0"
         y="4.3010001">.</tspan><tspan
         id="tspan6"
         style="font-variant:normal;font-weight:normal;font-size:9.9626px;font-family:'Liberation Mono';writing-mode:lr-tb;fill:#000000;fill-opacity:1;fill-rule:nonzero;stroke:none;stroke-width:0.514149"
         x="0"
         y="8.6029997">.</tspan></text>
    <path
       id="path6"
       d="M 99.21384,-67.92651 H 45.35509 v -13.46468 h 53.85875 z"
       style="fill:#ffccc4;fill-opacity:1;fill-rule:nonzero;stroke:#000000;stroke-width:0.307337;stroke-linecap:butt;stroke-linejoin:miter;stroke-miterlimit:10;stroke-dasharray:none;stroke-opacity:1"
       transform="matrix(1.3333333,0,0,-1.3333333,81.292,44.450667)" />
    <path
       id="path7"
       d="M 112.6785,-25.51195 H 99.21384 v -55.87837 h 13.46466 z"
       style="fill:#2e8b57;fill-opacity:1;fill-rule:nonzero;stroke:#000000;stroke-width:0.307337;stroke-linecap:butt;stroke-linejoin:miter;stroke-miterlimit:10;stroke-dasharray:none;stroke-opacity:1"
       transform="matrix(1.3333333,0,0,-1.3333333,81.292,44.450667)" />
    <path
       id="path8"
       d="m 106.3006,-96.379 h 28.34679 v 28.34679 H 106.3006 Z"
       style="fill:#e86a58;fill-opacity:1;fill-rule:nonzero;stroke:#000000;stroke-width:0.512237;stroke-linecap:butt;stroke-linejoin:miter;stroke-miterlimit:10;stroke-dasharray:none;stroke-opacity:1"
       transform="matrix(1.3333333,0,0,-1.3333333,81.292,44.450667)" />
    <text
       id="text8"
       xml:space="preserve"
       transform="matrix(1.3333333,0,0,1.3333333,33.076,68.222667)"
       style="stroke-width:0.514149"><tspan
         id="tspan8"
         style="font-variant:normal;font-weight:normal;font-size:6.2764px;font-family:Arial;writing-mode:lr-tb;fill:#808080;fill-opacity:1;fill-rule:nonzero;stroke:none;stroke-width:0.514149"
         x="0"
         y="0">call_net[r][c]</tspan></text>
    <text
       id="text9"
       xml:space="preserve"
       transform="matrix(1.3333333,0,0,1.3333333,84.392,68.978667)"
       style="stroke-width:0.514149"><tspan
         id="tspan9"
         style="font-variant:normal;font-weight:normal;font-size:6.2764px;font-family:Arial;writing-mode:lr-tb;fill:#000000;fill-opacity:1;fill-rule:nonzero;stroke:none;stroke-width:0.514149"
         x="0"
         y="0">call_in</tspan></text>
    <text
       id="text10"
       xml:space="preserve"
       transform="matrix(1.3333333,0,0,1.3333333,35.866667,80.506667)"
       style="stroke-width:0.514149"><tspan
         id="tspan10"
         style="font-variant:normal;font-weight:normal;font-size:6.2764px;font-family:Arial;writing-mode:lr-tb;fill:#808080;fill-opacity:1;fill-rule:nonzero;stroke:none;stroke-width:0.514149"
         x="0"
         y="0">ret_net[r][c]</tspan></text>
    <text
       id="text11"
       xml:space="preserve"
       transform="matrix(1.3333333,0,0,1.3333333,84.392,81.262667)"
       style="stroke-width:0.514149"><tspan
         id="tspan11"
         style="font-variant:normal;font-weight:normal;font-size:6.2764px;font-family:Arial;writing-mode:lr-tb;fill:#000000;fill-opacity:1;fill-rule:nonzero;stroke:none;stroke-width:0.514149"
         x="0"
         y="0">ret_out</tspan></text>
    <text
       id="text12"
       xml:space="preserve"
       transform="matrix(1.3333333,0,0,1.3333333,25.638667,92.789333)"
       style="stroke-width:0.514149"><tspan
         id="tspan12"
         style="font-variant:normal;font-weight:normal;font-size:6.2764px;font-family:Arial;writing-mode:lr-tb;fill:#808080;fill-opacity:1;fill-rule:nonzero;stroke:none;stroke-width:0.514149"
         x="0"
         y="0">instr_nets[r][c]</tspan></text>
    <text
       id="text13"
       xml:space="preserve"
       transform="matrix(1.3333333,0,0,1.3333333,84.392,93.545333)"
       style="stroke-width:0.514149"><tspan
         id="tspan13"
         style="font-variant:normal;font-weight:normal;font-size:6.2764px;font-family:Arial;writing-mode:lr-tb;fill:#000000;fill-opacity:1;fill-rule:nonzero;stroke:none;stroke-width:0.514149"
         x="0"
         y="0">instr_x_in</tspan></text>
    <text
       id="text14"
       xml:space="preserve"
       transform="matrix(1.3333333,0,0,1.3333333,2.8333333,148.53867)"
       style="stroke-width:0.514149"><tspan
         id="tspan14"
         style="font-variant:normal;font-weight:normal;font-size:6.2764px;font-family:Arial;writing-mode:lr-tb;fill:#8470ff;fill-opacity:1;fill-rule:nonzero;stroke:none;stroke-width:0.514149"
         x="0"
         y="0">bulk_e2w_net[r][c-1]</tspan></text>
    <text
       id="text15"
       xml:space="preserve"
       transform="matrix(1.3333333,0,0,1.3333333,84.392,149.29467)"
       style="stroke-width:0.514149"><tspan
         id="tspan15"
         style="font-variant:normal;font-weight:normal;font-size:6.2764px;font-family:Arial;writing-mode:lr-tb;fill:#000000;fill-opacity:1;fill-rule:nonzero;stroke:none;stroke-width:0.514149"
         x="0"
         y="0">bulk_w_in</tspan></text>
    <text
       id="text16"
       xml:space="preserve"
       transform="matrix(1.3333333,0,0,1.3333333,10.273333,165.44133)"
       style="stroke-width:0.514149"><tspan
         id="tspan16"
         style="font-variant:normal;font-weight:normal;font-size:6.2764px;font-family:Arial;writing-mode:lr-tb;fill:#8470ff;fill-opacity:1;fill-rule:nonzero;stroke:none;stroke-width:0.514149"
         x="0"
         y="0">bulk_w2e_net[r][c]</tspan></text>
    <text
       id="text17"
       xml:space="preserve"
       transform="matrix(1.3333333,0,0,1.3333333,84.392,163.14933)"
       style="stroke-width:0.514149"><tspan
         id="tspan17"
         style="font-variant:normal;font-weight:normal;font-size:6.2764px;font-family:Arial;writing-mode:lr-tb;fill:#000000;fill-opacity:1;fill-rule:nonzero;stroke:none;stroke-width:0.514149"
         x="0"
         y="0">bulk_w_out</tspan></text>
    <text
       id="text18"
       xml:space="preserve"
       transform="matrix(1.3333333,0,0,1.3333333,311.16667,68.222667)"
       style="stroke-width:0.514149"><tspan
         id="tspan18"
         style="font-variant:normal;font-weight:normal;font-size:6.2764px;font-family:Arial;writing-mode:lr-tb;fill:#808080;fill-opacity:1;fill-rule:nonzero;stroke:none;stroke-width:0.514149"
         x="0"
         y="0">call_net[r][c+1]</tspan></text>
    <text
       id="text19"
       xml:space="preserve"
       transform="matrix(1.3333333,0,0,1.3333333,277.98133,68.978667)"
       style="stroke-width:0.514149"><tspan
         id="tspan19"
         style="font-variant:normal;font-weight:normal;font-size:6.2764px;font-family:Arial;writing-mode:lr-tb;fill:#000000;fill-opacity:1;fill-rule:nonzero;stroke:none;stroke-width:0.514149"
         x="0"
         y="0">cal_out</tspan></text>
    <text
       id="text20"
       xml:space="preserve"
       transform="matrix(1.3333333,0,0,1.3333333,311.16667,80.506667)"
       style="stroke-width:0.514149"><tspan
         id="tspan20"
         style="font-variant:normal;font-weight:normal;font-size:6.2764px;font-family:Arial;writing-mode:lr-tb;fill:#808080;fill-opacity:1;fill-rule:nonzero;stroke:none;stroke-width:0.514149"
         x="0"
         y="0">ret_net[r][c+1]</tspan></text>
    <text
       id="text21"
       xml:space="preserve"
       transform="matrix(1.3333333,0,0,1.3333333,284.032,81.262667)"
       style="stroke-width:0.514149"><tspan
         id="tspan21"
         style="font-variant:normal;font-weight:normal;font-size:6.2764px;font-family:Arial;writing-mode:lr-tb;fill:#000000;fill-opacity:1;fill-rule:nonzero;stroke:none;stroke-width:0.514149"
         x="0"
         y="0">ret_in</tspan></text>
    <text
       id="text22"
       xml:space="preserve"
       transform="matrix(1.3333333,0,0,1.3333333,311.16667,92.789333)"
       style="stroke-width:0.514149"><tspan
         id="tspan22"
         style="font-variant:normal;font-weight:normal;font-size:6.2764px;font-family:Arial;writing-mode:lr-tb;fill:#808080;fill-opacity:1;fill-rule:nonzero;stroke:none;stroke-width:0.514149"
         x="0"
         y="0">instr_nets[r][c+1]</tspan></text>
    <text
       id="text23"
       xml:space="preserve"
       transform="matrix(1.3333333,0,0,1.3333333,264.03067,93.545333)"
       style="stroke-width:0.514149"><tspan
         id="tspan23"
         style="font-variant:normal;font-weight:normal;font-size:6.2764px;font-family:Arial;writing-mode:lr-tb;fill:#000000;fill-opacity:1;fill-rule:nonzero;stroke:none;stroke-width:0.514149"
         x="0"
         y="0">instr_x_out</tspan></text>
    <text
       id="text24"
       xml:space="preserve"
       transform="matrix(1.3333333,0,0,1.3333333,311.16667,148.53867)"
       style="stroke-width:0.514149"><tspan
         id="tspan24"
         style="font-variant:normal;font-weight:normal;font-size:6.2764px;font-family:Arial;writing-mode:lr-tb;fill:#8470ff;fill-opacity:1;fill-rule:nonzero;stroke:none;stroke-width:0.514149"
         x="0"
         y="0">bulk_e2w_net[r][c]</tspan></text>
    <text
       id="text25"
       xml:space="preserve"
       transform="matrix(1.3333333,0,0,1.3333333,264.01733,149.29467)"
       style="stroke-width:0.514149"><tspan
         id="tspan25"
         style="font-variant:normal;font-weight:normal;font-size:6.2764px;font-family:Arial;writing-mode:lr-tb;fill:#000000;fill-opacity:1;fill-rule:nonzero;stroke:none;stroke-width:0.514149"
         x="0"
         y="0">bulk_e_out</tspan></text>
    <text
       id="text26"
       xml:space="preserve"
       transform="matrix(1.3333333,0,0,1.3333333,311.16667,165.44133)"
       style="stroke-width:0.514149"><tspan
         id="tspan26"
         style="font-variant:normal;font-weight:normal;font-size:6.2764px;font-family:Arial;writing-mode:lr-tb;fill:#8470ff;fill-opacity:1;fill-rule:nonzero;stroke:none;stroke-width:0.514149"
         x="0"
         y="0">bulk_w2e_net[r][c+1]</tspan></text>
    <text
       id="text27"
       xml:space="preserve"
       transform="matrix(1.3333333,0,0,1.3333333,269.13733,163.14933)"
       style="stroke-width:0.514149"><tspan
         id="tspan27"
         style="font-variant:normal;font-weight:normal;font-size:6.2764px;font-family:Arial;writing-mode:lr-tb;fill:#000000;fill-opacity:1;fill-rule:nonzero;stroke:none;stroke-width:0.514149"
         x="0"
         y="0">bulk_e_in</tspan></text>
    <text
       id="text28"
       xml:space="preserve"
       transform="matrix(1.3333333,0,0,1.3333333,101.58933,16.764)"
       style="stroke-width:0.514149"><tspan
         id="tspan28"
         style="font-variant:normal;font-weight:normal;font-size:6.2764px;font-family:Arial;writing-mode:lr-tb;fill:#808080;fill-opacity:1;fill-rule:nonzero;stroke:none;stroke-width:0.514149"
         x="0"
         y="0">clk</tspan></text>
    <text
       id="text29"
       xml:space="preserve"
       transform="matrix(1.3333333,0,0,1.3333333,110.80133,28.481333)"
       style="stroke-width:0.514149"><tspan
         id="tspan29"
         style="font-variant:normal;font-weight:normal;font-size:6.2764px;font-family:Arial;writing-mode:lr-tb;fill:#808080;fill-opacity:1;fill-rule:nonzero;stroke:none;stroke-width:0.514149"
         x="0"
         y="0">rst_n</tspan></text>
    <text
       id="text30"
       xml:space="preserve"
       transform="matrix(1.3333333,0,0,1.3333333,239.35467,15.954667)"
       style="stroke-width:0.514149"><tspan
         id="tspan30"
         style="font-variant:normal;font-weight:normal;font-size:6.2764px;font-family:Arial;writing-mode:lr-tb;fill:#8470ff;fill-opacity:1;fill-rule:nonzero;stroke:none;stroke-width:0.514149"
         x="0"
         y="0">bulk_s2n_net[r-1][c]</tspan></text>
    <text
       id="text31"
       xml:space="preserve"
       transform="matrix(1.3333333,0,0,1.3333333,239.35467,52.485333)"
       style="stroke-width:0.514149"><tspan
         id="tspan31"
         style="font-variant:normal;font-weight:normal;font-size:6.2764px;font-family:Arial;writing-mode:lr-tb;fill:#000000;fill-opacity:1;fill-rule:nonzero;stroke:none;stroke-width:0.514149"
         x="0"
         y="0">bulk_n_in</tspan></text>
    <text
       id="text32"
       xml:space="preserve"
       transform="matrix(1.3333333,0,0,1.3333333,245.024,25.917333)"
       style="stroke-width:0.514149"><tspan
         id="tspan32"
         style="font-variant:normal;font-weight:normal;font-size:6.2764px;font-family:Arial;writing-mode:lr-tb;fill:#8470ff;fill-opacity:1;fill-rule:nonzero;stroke:none;stroke-width:0.514149"
         x="0"
         y="0">bulk_n2s_net[r][c]</tspan></text>
    <text
       id="text33"
       xml:space="preserve"
       transform="matrix(1.3333333,0,0,1.3333333,245.024,62.448)"
       style="stroke-width:0.514149"><tspan
         id="tspan33"
         style="font-variant:normal;font-weight:normal;font-size:6.2764px;font-family:Arial;writing-mode:lr-tb;fill:#000000;fill-opacity:1;fill-rule:nonzero;stroke:none;stroke-width:0.514149"
         x="0"
         y="0">bulk_n_out</tspan></text>
    <text
       id="text34"
       xml:space="preserve"
       transform="matrix(1.3333333,0,0,1.3333333,141.08667,5.992)"
       style="stroke-width:0.514149"><tspan
         id="tspan34"
         style="font-variant:normal;font-weight:normal;font-size:6.2764px;font-family:Arial;writing-mode:lr-tb;fill:#808080;fill-opacity:1;fill-rule:nonzero;stroke:none;stroke-width:0.514149"
         x="0"
         y="0">io_en_in[c]</tspan></text>
    <text
       id="text35"
       xml:space="preserve"
       transform="matrix(1.3333333,0,0,1.3333333,141.08667,52.484)"
       style="stroke-width:0.514149"><tspan
         id="tspan35"
         style="font-variant:normal;font-weight:normal;font-size:6.2764px;font-family:Arial;writing-mode:lr-tb;fill:#000000;fill-opacity:1;fill-rule:nonzero;stroke:none;stroke-width:0.514149"
         x="0"
         y="0">io_en_in</tspan></text>
    <text
       id="text36"
       xml:space="preserve"
       transform="matrix(1.3333333,0,0,1.3333333,153.37067,15.954667)"
       style="stroke-width:0.514149"><tspan
         id="tspan36"
         style="font-variant:normal;font-weight:normal;font-size:6.2764px;font-family:Arial;writing-mode:lr-tb;fill:#808080;fill-opacity:1;fill-rule:nonzero;stroke:none;stroke-width:0.514149"
         x="0"
         y="0">io_addr_in[c]</tspan></text>
    <text
       id="text37"
       xml:space="preserve"
       transform="matrix(1.3333333,0,0,1.3333333,153.37067,62.446667)"
       style="stroke-width:0.514149"><tspan
         id="tspan37"
         style="font-variant:normal;font-weight:normal;font-size:6.2764px;font-family:Arial;writing-mode:lr-tb;fill:#000000;fill-opacity:1;fill-rule:nonzero;stroke:none;stroke-width:0.514149"
         x="0"
         y="0">io_addr_in</tspan></text>
    <text
       id="text38"
       xml:space="preserve"
       transform="matrix(1.3333333,0,0,1.3333333,165.65467,25.917333)"
       style="stroke-width:0.514149"><tspan
         id="tspan38"
         style="font-variant:normal;font-weight:normal;font-size:6.2764px;font-family:Arial;writing-mode:lr-tb;fill:#808080;fill-opacity:1;fill-rule:nonzero;stroke:none;stroke-width:0.514149"
         x="0"
         y="0">io_data_in[c]</tspan></text>
    <text
       id="text39"
       xml:space="preserve"
       transform="matrix(1.3333333,0,0,1.3333333,165.65467,72.410667)"
       style="stroke-width:0.514149"><tspan
         id="tspan39"
         style="font-variant:normal;font-weight:normal;font-size:6.2764px;font-family:Arial;writing-mode:lr-tb;fill:#000000;fill-opacity:1;fill-rule:nonzero;stroke:none;stroke-width:0.514149"
         x="0"
         y="0">io_data_in</tspan></text>
    <text
       id="text40"
       xml:space="preserve"
       transform="matrix(1.3333333,0,0,1.3333333,242.18933,220.272)"
       style="stroke-width:0.514149"><tspan
         id="tspan40"
         style="font-variant:normal;font-weight:normal;font-size:6.2764px;font-family:Arial;writing-mode:lr-tb;fill:#8470ff;fill-opacity:1;fill-rule:nonzero;stroke:none;stroke-width:0.514149"
         x="0"
         y="0">bulk_s2n_net[r][c]</tspan></text>
    <text
       id="text41"
       xml:space="preserve"
       transform="matrix(1.3333333,0,0,1.3333333,239.35467,192.044)"
       style="stroke-width:0.514149"><tspan
         id="tspan41"
         style="font-variant:normal;font-weight:normal;font-size:6.2764px;font-family:Arial;writing-mode:lr-tb;fill:#000000;fill-opacity:1;fill-rule:nonzero;stroke:none;stroke-width:0.514149"
         x="0"
         y="0">bulk_s_out</tspan></text>
    <text
       id="text42"
       xml:space="preserve"
       transform="matrix(1.3333333,0,0,1.3333333,247.85867,210.30933)"
       style="stroke-width:0.514149"><tspan
         id="tspan42"
         style="font-variant:normal;font-weight:normal;font-size:6.2764px;font-family:Arial;writing-mode:lr-tb;fill:#8470ff;fill-opacity:1;fill-rule:nonzero;stroke:none;stroke-width:0.514149"
         x="0"
         y="0">bulk_n2s_net[r+1][c]</tspan></text>
    <text
       id="text43"
       xml:space="preserve"
       transform="matrix(1.3333333,0,0,1.3333333,245.024,182.08133)"
       style="stroke-width:0.514149"><tspan
         id="tspan43"
         style="font-variant:normal;font-weight:normal;font-size:6.2764px;font-family:Arial;writing-mode:lr-tb;fill:#000000;fill-opacity:1;fill-rule:nonzero;stroke:none;stroke-width:0.514149"
         x="0"
         y="0">bulk_s_in</tspan></text>
    <text
       id="text44"
       xml:space="preserve"
       transform="matrix(1.3333333,0,0,1.3333333,143.92133,230.23467)"
       style="stroke-width:0.514149"><tspan
         id="tspan44"
         style="font-variant:normal;font-weight:normal;font-size:6.2764px;font-family:Arial;writing-mode:lr-tb;fill:#808080;fill-opacity:1;fill-rule:nonzero;stroke:none;stroke-width:0.514149"
         x="0"
         y="0">io_en_out[c]</tspan></text>
    <text
       id="text45"
       xml:space="preserve"
       transform="matrix(1.3333333,0,0,1.3333333,141.08667,192.04533)"
       style="stroke-width:0.514149"><tspan
         id="tspan45"
         style="font-variant:normal;font-weight:normal;font-size:6.2764px;font-family:Arial;writing-mode:lr-tb;fill:#000000;fill-opacity:1;fill-rule:nonzero;stroke:none;stroke-width:0.514149"
         x="0"
         y="0">io_en_out</tspan></text>
    <text
       id="text46"
       xml:space="preserve"
       transform="matrix(1.3333333,0,0,1.3333333,156.20533,220.272)"
       style="stroke-width:0.514149"><tspan
         id="tspan46"
         style="font-variant:normal;font-weight:normal;font-size:6.2764px;font-family:Arial;writing-mode:lr-tb;fill:#808080;fill-opacity:1;fill-rule:nonzero;stroke:none;stroke-width:0.514149"
         x="0"
         y="0">io_addr_out[c]</tspan></text>
    <text
       id="text47"
       xml:space="preserve"
       transform="matrix(1.3333333,0,0,1.3333333,153.37067,182.08267)"
       style="stroke-width:0.514149"><tspan
         id="tspan47"
         style="font-variant:normal;font-weight:normal;font-size:6.2764px;font-family:Arial;writing-mode:lr-tb;fill:#000000;fill-opacity:1;fill-rule:nonzero;stroke:none;stroke-width:0.514149"
         x="0"
         y="0">io_addr_out</tspan></text>
    <text
       id="text48"
       xml:space="preserve"
       transform="matrix(1.3333333,0,0,1.3333333,168.488,210.30933)"
       style="stroke-width:0.514149"><tspan
         id="tspan48"
         style="font-variant:normal;font-weight:normal;font-size:6.2764px;font-family:Arial;writing-mode:lr-tb;fill:#808080;fill-opacity:1;fill-rule:nonzero;stroke:none;stroke-width:0.514149"
         x="0"
         y="0">io_data_out[c]</tspan></text>
    <text
       id="text49"
       xml:space="preserve"
       transform="matrix(1.3333333,0,0,1.3333333,165.65467,172.11867)"
       style="stroke-width:0.514149"><tspan
         id="tspan49"
         style="font-variant:normal;font-weight:normal;font-size:6.2764px;font-family:Arial;writing-mode:lr-tb;fill:#000000;fill-opacity:1;fill-rule:nonzero;stroke:none;stroke-width:0.514149"
         x="0"
         y="0">io_data_out</tspan></text>
    <path
       id="path49"
       d="M 12.89761,19.9256 V 4.58284"
       style="fill:none;stroke:#000000;stroke-width:0.204888;stroke-linecap:butt;stroke-linejoin:miter;stroke-miterlimit:10;stroke-dasharray:none;stroke-opacity:1"
       transform="matrix(1.3333333,0,0,-1.3333333,81.292,44.450667)" />
    <path
       id="path50"
       d="M 3.7613,0 C 3.2994,0.1127 1.26901,0.75136 0,1.44638 V -1.44638 C 1.26901,-0.75136 3.2994,-0.1127 3.7613,0 Z"
       style="fill:#000000;fill-opacity:1;fill-rule:nonzero;stroke:#000000;stroke-width:0.204888;stroke-linecap:butt;stroke-linejoin:miter;stroke-miterlimit:10;stroke-dasharray:none;stroke-opacity:1"
       transform="matrix(0,1.3333333,1.3333333,0,98.488813,38.340213)" />
    <path
       id="path51"
       d="M 19.80708,9.96298 V 4.58284"
       style="fill:none;stroke:#000000;stroke-width:0.204888;stroke-linecap:butt;stroke-linejoin:miter;stroke-miterlimit:10;stroke-dasharray:none;stroke-opacity:1"
       transform="matrix(1.3333333,0,0,-1.3333333,81.292,44.450667)" />
    <path
       id="path52"
       d="M 3.7613,0 C 3.2994,0.1127 1.26901,0.75136 0,1.44638 V -1.44638 C 1.26901,-0.75136 3.2994,-0.1127 3.7613,0 Z"
       style="fill:#000000;fill-opacity:1;fill-rule:nonzero;stroke:#000000;stroke-width:0.204888;stroke-linecap:butt;stroke-linejoin:miter;stroke-miterlimit:10;stroke-dasharray:none;stroke-opacity:1"
       transform="matrix(0,1.3333333,1.3333333,0,107.70144,38.340213)" />
    <path
       id="path53"
       d="M -24.90692,-80.07968 H -4.58284"
       style="fill:none;stroke:#0000ff;stroke-width:0.204888;stroke-linecap:butt;stroke-linejoin:miter;stroke-miterlimit:10;stroke-dasharray:none;stroke-opacity:1"
       transform="matrix(1.3333333,0,0,-1.3333333,81.292,44.450667)" />
    <path
       id="path54"
       d="M 3.7613,0 C 3.2994,0.1127 1.26901,0.75136 0,1.44638 V -1.44638 C 1.26901,-0.75136 3.2994,-0.1127 3.7613,0 Z"
       style="fill:#0000ff;fill-opacity:1;fill-rule:nonzero;stroke:#0000ff;stroke-width:0.204888;stroke-linecap:butt;stroke-linejoin:miter;stroke-miterlimit:10;stroke-dasharray:none;stroke-opacity:1"
       transform="matrix(1.3333333,0,0,-1.3333333,75.181547,151.22357)" />
    <path
       id="path55"
       d="m -13.44974,-82.07224 1.99256,3.98511"
       style="fill:none;stroke:#0000ff;stroke-width:0.204888;stroke-linecap:butt;stroke-linejoin:miter;stroke-miterlimit:10;stroke-dasharray:none;stroke-opacity:1"
       transform="matrix(1.3333333,0,0,-1.3333333,81.292,44.450667)" />
    <path
       id="path56"
       d="M -24.90692,-19.84268 H -4.58284"
       style="fill:none;stroke:#000000;stroke-width:0.204888;stroke-linecap:butt;stroke-linejoin:miter;stroke-miterlimit:10;stroke-dasharray:none;stroke-opacity:1"
       transform="matrix(1.3333333,0,0,-1.3333333,81.292,44.450667)" />
    <path
       id="path57"
       d="M 3.7613,0 C 3.2994,0.1127 1.26901,0.75136 0,1.44638 V -1.44638 C 1.26901,-0.75136 3.2994,-0.1127 3.7613,0 Z"
       style="fill:#000000;fill-opacity:1;fill-rule:nonzero;stroke:#000000;stroke-width:0.204888;stroke-linecap:butt;stroke-linejoin:miter;stroke-miterlimit:10;stroke-dasharray:none;stroke-opacity:1"
       transform="matrix(1.3333333,0,0,-1.3333333,75.181547,70.907573)" />
    <path
       id="path58"
       d="M -24.90692,-38.26793 H -4.58284"
       style="fill:none;stroke:#000000;stroke-width:0.204888;stroke-linecap:butt;stroke-linejoin:miter;stroke-miterlimit:10;stroke-dasharray:none;stroke-opacity:1"
       transform="matrix(1.3333333,0,0,-1.3333333,81.292,44.450667)" />
    <path
       id="path59"
       d="M 3.7613,0 C 3.2994,0.1127 1.26901,0.75136 0,1.44638 V -1.44638 C 1.26901,-0.75136 3.2994,-0.1127 3.7613,0 Z"
       style="fill:#000000;fill-opacity:1;fill-rule:nonzero;stroke:#000000;stroke-width:0.204888;stroke-linecap:butt;stroke-linejoin:miter;stroke-miterlimit:10;stroke-dasharray:none;stroke-opacity:1"
       transform="matrix(1.3333333,0,0,-1.3333333,75.181547,95.474573)" />
    <path
       id="path60"
       d="m -14.19695,-40.26048 1.99256,3.9851"
       style="fill:none;stroke:#000000;stroke-width:0.204888;stroke-linecap:butt;stroke-linejoin:miter;stroke-miterlimit:10;stroke-dasharray:none;stroke-opacity:1"
       transform="matrix(1.3333333,0,0,-1.3333333,81.292,44.450667)" />
    <path
       id="path61"
       d="m -12.70253,-40.26048 1.99255,3.9851"
       style="fill:none;stroke:#000000;stroke-width:0.204888;stroke-linecap:butt;stroke-linejoin:miter;stroke-miterlimit:10;stroke-dasharray:none;stroke-opacity:1"
       transform="matrix(1.3333333,0,0,-1.3333333,81.292,44.450667)" />
    <path
       id="path62"
       d="M 0,-84.33153 H -20.32407"
       style="fill:none;stroke:#0000ff;stroke-width:0.204888;stroke-linecap:butt;stroke-linejoin:miter;stroke-miterlimit:10;stroke-dasharray:none;stroke-opacity:1"
       transform="matrix(1.3333333,0,0,-1.3333333,81.292,44.450667)" />
    <path
       id="path63"
       d="M 3.7613,0 C 3.2994,0.1127 1.26901,0.75136 0,1.44638 V -1.44638 C 1.26901,-0.75136 3.2994,-0.1127 3.7613,0 Z"
       style="fill:#0000ff;fill-opacity:1;fill-rule:nonzero;stroke:#0000ff;stroke-width:0.204888;stroke-linecap:butt;stroke-linejoin:miter;stroke-miterlimit:10;stroke-dasharray:none;stroke-opacity:1"
       transform="matrix(-1.3333333,0,0,1.3333333,54.19324,156.89271)" />
    <path
       id="path64"
       d="m -11.45717,-82.33897 -1.99255,-3.98511"
       style="fill:none;stroke:#0000ff;stroke-width:0.204888;stroke-linecap:butt;stroke-linejoin:miter;stroke-miterlimit:10;stroke-dasharray:none;stroke-opacity:1"
       transform="matrix(1.3333333,0,0,-1.3333333,81.292,44.450667)" />
    <path
       id="path65"
       d="M 0,-29.05531 H -20.32407"
       style="fill:none;stroke:#000000;stroke-width:0.204888;stroke-linecap:butt;stroke-linejoin:miter;stroke-miterlimit:10;stroke-dasharray:none;stroke-opacity:1"
       transform="matrix(1.3333333,0,0,-1.3333333,81.292,44.450667)" />
    <path
       id="path66"
       d="M 3.7613,0 C 3.2994,0.1127 1.26901,0.75136 0,1.44638 V -1.44638 C 1.26901,-0.75136 3.2994,-0.1127 3.7613,0 Z"
       style="fill:#000000;fill-opacity:1;fill-rule:nonzero;stroke:#000000;stroke-width:0.204888;stroke-linecap:butt;stroke-linejoin:miter;stroke-miterlimit:10;stroke-dasharray:none;stroke-opacity:1"
       transform="matrix(-1.3333333,0,0,1.3333333,54.19324,83.19108)" />
    <path
       id="path67"
       d="M 194.98784,-29.05531 H 174.66376"
       style="fill:none;stroke:#000000;stroke-width:0.204888;stroke-linecap:butt;stroke-linejoin:miter;stroke-miterlimit:10;stroke-dasharray:none;stroke-opacity:1"
       transform="matrix(1.3333333,0,0,-1.3333333,81.292,44.450667)" />
    <path
       id="path68"
       d="M 3.7613,0 C 3.2994,0.1127 1.26901,0.75136 0,1.44638 V -1.44638 C 1.26901,-0.75136 3.2994,-0.1127 3.7613,0 Z"
       style="fill:#000000;fill-opacity:1;fill-rule:nonzero;stroke:#000000;stroke-width:0.204888;stroke-linecap:butt;stroke-linejoin:miter;stroke-miterlimit:10;stroke-dasharray:none;stroke-opacity:1"
       transform="matrix(-1.3333333,0,0,1.3333333,314.17701,83.19108)" />
    <path
       id="path69"
       d="M 194.98784,-84.33153 H 174.66376"
       style="fill:none;stroke:#0000ff;stroke-width:0.204888;stroke-linecap:butt;stroke-linejoin:miter;stroke-miterlimit:10;stroke-dasharray:none;stroke-opacity:1"
       transform="matrix(1.3333333,0,0,-1.3333333,81.292,44.450667)" />
    <path
       id="path70"
       d="M 3.7613,0 C 3.2994,0.1127 1.26901,0.75136 0,1.44638 V -1.44638 C 1.26901,-0.75136 3.2994,-0.1127 3.7613,0 Z"
       style="fill:#0000ff;fill-opacity:1;fill-rule:nonzero;stroke:#0000ff;stroke-width:0.204888;stroke-linecap:butt;stroke-linejoin:miter;stroke-miterlimit:10;stroke-dasharray:none;stroke-opacity:1"
       transform="matrix(-1.3333333,0,0,1.3333333,314.17701,156.89271)" />
    <path
       id="path71"
       d="m 183.53067,-82.33897 -1.99255,-3.98511"
       style="fill:none;stroke:#0000ff;stroke-width:0.204888;stroke-linecap:butt;stroke-linejoin:miter;stroke-miterlimit:10;stroke-dasharray:none;stroke-opacity:1"
       transform="matrix(1.3333333,0,0,-1.3333333,81.292,44.450667)" />
    <path
       id="path72"
       d="m 170.08092,-19.84268 h 20.32406"
       style="fill:none;stroke:#000000;stroke-width:0.204888;stroke-linecap:butt;stroke-linejoin:miter;stroke-miterlimit:10;stroke-dasharray:none;stroke-opacity:1"
       transform="matrix(1.3333333,0,0,-1.3333333,81.292,44.450667)" />
    <path
       id="path73"
       d="M 3.7613,0 C 3.2994,0.1127 1.26901,0.75136 0,1.44638 V -1.44638 C 1.26901,-0.75136 3.2994,-0.1127 3.7613,0 Z"
       style="fill:#000000;fill-opacity:1;fill-rule:nonzero;stroke:#000000;stroke-width:0.204888;stroke-linecap:butt;stroke-linejoin:miter;stroke-miterlimit:10;stroke-dasharray:none;stroke-opacity:1"
       transform="matrix(1.3333333,0,0,-1.3333333,335.16531,70.907573)" />
    <path
       id="path74"
       d="m 170.08092,-38.26793 h 20.32406"
       style="fill:none;stroke:#000000;stroke-width:0.204888;stroke-linecap:butt;stroke-linejoin:miter;stroke-miterlimit:10;stroke-dasharray:none;stroke-opacity:1"
       transform="matrix(1.3333333,0,0,-1.3333333,81.292,44.450667)" />
    <path
       id="path75"
       d="M 3.7613,0 C 3.2994,0.1127 1.26901,0.75136 0,1.44638 V -1.44638 C 1.26901,-0.75136 3.2994,-0.1127 3.7613,0 Z"
       style="fill:#000000;fill-opacity:1;fill-rule:nonzero;stroke:#000000;stroke-width:0.204888;stroke-linecap:butt;stroke-linejoin:miter;stroke-miterlimit:10;stroke-dasharray:none;stroke-opacity:1"
       transform="matrix(1.3333333,0,0,-1.3333333,335.16531,95.474573)" />
    <path
       id="path76"
       d="m 180.79088,-40.26048 1.99255,3.9851"
       style="fill:none;stroke:#000000;stroke-width:0.204888;stroke-linecap:butt;stroke-linejoin:miter;stroke-miterlimit:10;stroke-dasharray:none;stroke-opacity:1"
       transform="matrix(1.3333333,0,0,-1.3333333,81.292,44.450667)" />
    <path
       id="path77"
       d="m 182.2853,-40.26048 1.99255,3.9851"
       style="fill:none;stroke:#000000;stroke-width:0.204888;stroke-linecap:butt;stroke-linejoin:miter;stroke-miterlimit:10;stroke-dasharray:none;stroke-opacity:1"
       transform="matrix(1.3333333,0,0,-1.3333333,81.292,44.450667)" />
    <path
       id="path78"
       d="m 170.08092,-80.07968 h 20.32406"
       style="fill:none;stroke:#0000ff;stroke-width:0.204888;stroke-linecap:butt;stroke-linejoin:miter;stroke-miterlimit:10;stroke-dasharray:none;stroke-opacity:1"
       transform="matrix(1.3333333,0,0,-1.3333333,81.292,44.450667)" />
    <path
       id="path79"
       d="M 3.7613,0 C 3.2994,0.1127 1.26901,0.75136 0,1.44638 V -1.44638 C 1.26901,-0.75136 3.2994,-0.1127 3.7613,0 Z"
       style="fill:#0000ff;fill-opacity:1;fill-rule:nonzero;stroke:#0000ff;stroke-width:0.204888;stroke-linecap:butt;stroke-linejoin:miter;stroke-miterlimit:10;stroke-dasharray:none;stroke-opacity:1"
       transform="matrix(1.3333333,0,0,-1.3333333,335.16531,151.22357)" />
    <path
       id="path80"
       d="m 181.53809,-82.07224 1.99255,3.98511"
       style="fill:none;stroke:#0000ff;stroke-width:0.204888;stroke-linecap:butt;stroke-linejoin:miter;stroke-miterlimit:10;stroke-dasharray:none;stroke-opacity:1"
       transform="matrix(1.3333333,0,0,-1.3333333,81.292,44.450667)" />
    <path
       id="path81"
       d="M 118.34808,19.9256 V 4.58284"
       style="fill:none;stroke:#0000ff;stroke-width:0.204888;stroke-linecap:butt;stroke-linejoin:miter;stroke-miterlimit:10;stroke-dasharray:none;stroke-opacity:1"
       transform="matrix(1.3333333,0,0,-1.3333333,81.292,44.450667)" />
    <path
       id="path82"
       d="M 3.7613,0 C 3.2994,0.1127 1.26901,0.75136 0,1.44638 V -1.44638 C 1.26901,-0.75136 3.2994,-0.1127 3.7613,0 Z"
       style="fill:#0000ff;fill-opacity:1;fill-rule:nonzero;stroke:#0000ff;stroke-width:0.204888;stroke-linecap:butt;stroke-linejoin:miter;stroke-miterlimit:10;stroke-dasharray:none;stroke-opacity:1"
       transform="matrix(0,1.3333333,1.3333333,0,239.08944,38.340213)" />
    <path
       id="path83"
       d="m 116.35553,11.95543 3.98511,-1.99255"
       style="fill:none;stroke:#0000ff;stroke-width:0.204888;stroke-linecap:butt;stroke-linejoin:miter;stroke-miterlimit:10;stroke-dasharray:none;stroke-opacity:1"
       transform="matrix(1.3333333,0,0,-1.3333333,81.292,44.450667)" />
    <path
       id="path84"
       d="M 122.59991,0 V 7.8706"
       style="fill:none;stroke:#0000ff;stroke-width:0.204888;stroke-linecap:butt;stroke-linejoin:miter;stroke-miterlimit:10;stroke-dasharray:none;stroke-opacity:1"
       transform="matrix(1.3333333,0,0,-1.3333333,81.292,44.450667)" />
    <path
       id="path85"
       d="M 3.7613,0 C 3.2994,0.1127 1.26901,0.75136 0,1.44638 V -1.44638 C 1.26901,-0.75136 3.2994,-0.1127 3.7613,0 Z"
       style="fill:#0000ff;fill-opacity:1;fill-rule:nonzero;stroke:#0000ff;stroke-width:0.204888;stroke-linecap:butt;stroke-linejoin:miter;stroke-miterlimit:10;stroke-dasharray:none;stroke-opacity:1"
       transform="matrix(0,-1.3333333,-1.3333333,0,244.75855,33.956533)" />
    <path
       id="path86"
       d="m 124.59247,3.05103 -3.98511,1.99255"
       style="fill:none;stroke:#0000ff;stroke-width:0.204888;stroke-linecap:butt;stroke-linejoin:miter;stroke-miterlimit:10;stroke-dasharray:none;stroke-opacity:1"
       transform="matrix(1.3333333,0,0,-1.3333333,81.292,44.450667)" />
    <path
       id="path87"
       d="M 44.64706,0 V 22.81491"
       style="fill:none;stroke:#ff0000;stroke-width:0.204888;stroke-linecap:butt;stroke-linejoin:miter;stroke-miterlimit:10;stroke-dasharray:none;stroke-opacity:1"
       transform="matrix(1.3333333,0,0,-1.3333333,81.292,44.450667)" />
    <path
       id="path88"
       d="M 3.7613,0 C 3.2994,0.1127 1.26901,0.75136 0,1.44638 V -1.44638 C 1.26901,-0.75136 3.2994,-0.1127 3.7613,0 Z"
       style="fill:#ff0000;fill-opacity:1;fill-rule:nonzero;stroke:#ff0000;stroke-width:0.204888;stroke-linecap:butt;stroke-linejoin:miter;stroke-miterlimit:10;stroke-dasharray:none;stroke-opacity:1"
       transform="matrix(0,-1.3333333,-1.3333333,0,140.82141,14.030787)" />
    <path
       id="path89"
       d="M 53.8597,0 V 15.34276"
       style="fill:none;stroke:#ff0000;stroke-width:0.204888;stroke-linecap:butt;stroke-linejoin:miter;stroke-miterlimit:10;stroke-dasharray:none;stroke-opacity:1"
       transform="matrix(1.3333333,0,0,-1.3333333,81.292,44.450667)" />
    <path
       id="path90"
       d="M 3.7613,0 C 3.2994,0.1127 1.26901,0.75136 0,1.44638 V -1.44638 C 1.26901,-0.75136 3.2994,-0.1127 3.7613,0 Z"
       style="fill:#ff0000;fill-opacity:1;fill-rule:nonzero;stroke:#ff0000;stroke-width:0.204888;stroke-linecap:butt;stroke-linejoin:miter;stroke-miterlimit:10;stroke-dasharray:none;stroke-opacity:1"
       transform="matrix(0,-1.3333333,-1.3333333,0,153.10493,23.993653)" />
    <path
       id="path91"
       d="M 55.85225,7.97017 51.86714,9.96272"
       style="fill:none;stroke:#ff0000;stroke-width:0.204888;stroke-linecap:butt;stroke-linejoin:miter;stroke-miterlimit:10;stroke-dasharray:none;stroke-opacity:1"
       transform="matrix(1.3333333,0,0,-1.3333333,81.292,44.450667)" />
    <path
       id="path92"
       d="M 63.07231,12.45346 V 4.58284"
       style="fill:none;stroke:#ff0000;stroke-width:0.204888;stroke-linecap:butt;stroke-linejoin:miter;stroke-miterlimit:10;stroke-dasharray:none;stroke-opacity:1"
       transform="matrix(1.3333333,0,0,-1.3333333,81.292,44.450667)" />
    <path
       id="path93"
       d="M 3.7613,0 C 3.2994,0.1127 1.26901,0.75136 0,1.44638 V -1.44638 C 1.26901,-0.75136 3.2994,-0.1127 3.7613,0 Z"
       style="fill:#ff0000;fill-opacity:1;fill-rule:nonzero;stroke:#ff0000;stroke-width:0.204888;stroke-linecap:butt;stroke-linejoin:miter;stroke-miterlimit:10;stroke-dasharray:none;stroke-opacity:1"
       transform="matrix(0,1.3333333,1.3333333,0,165.38841,38.340213)" />
    <path
       id="path94"
       d="M 61.07976,9.40242 65.06487,7.40987"
       style="fill:none;stroke:#ff0000;stroke-width:0.204888;stroke-linecap:butt;stroke-linejoin:miter;stroke-miterlimit:10;stroke-dasharray:none;stroke-opacity:1"
       transform="matrix(1.3333333,0,0,-1.3333333,81.292,44.450667)" />
    <path
       id="path95"
       d="m 118.34808,-113.38727 v -15.34276"
       style="fill:none;stroke:#0000ff;stroke-width:0.204888;stroke-linecap:butt;stroke-linejoin:miter;stroke-miterlimit:10;stroke-dasharray:none;stroke-opacity:1"
       transform="matrix(1.3333333,0,0,-1.3333333,81.292,44.450667)" />
    <path
       id="path96"
       d="M 3.7613,0 C 3.2994,0.1127 1.26901,0.75136 0,1.44638 V -1.44638 C 1.26901,-0.75136 3.2994,-0.1127 3.7613,0 Z"
       style="fill:#0000ff;fill-opacity:1;fill-rule:nonzero;stroke:#0000ff;stroke-width:0.204888;stroke-linecap:butt;stroke-linejoin:miter;stroke-miterlimit:10;stroke-dasharray:none;stroke-opacity:1"
       transform="matrix(0,1.3333333,1.3333333,0,239.08944,216.09071)" />
    <path
       id="path97"
       d="m 116.35553,-121.35744 3.98511,-1.99255"
       style="fill:none;stroke:#0000ff;stroke-width:0.204888;stroke-linecap:butt;stroke-linejoin:miter;stroke-miterlimit:10;stroke-dasharray:none;stroke-opacity:1"
       transform="matrix(1.3333333,0,0,-1.3333333,81.292,44.450667)" />
    <path
       id="path98"
       d="m 122.59991,-125.84073 v 7.87062"
       style="fill:none;stroke:#0000ff;stroke-width:0.204888;stroke-linecap:butt;stroke-linejoin:miter;stroke-miterlimit:10;stroke-dasharray:none;stroke-opacity:1"
       transform="matrix(1.3333333,0,0,-1.3333333,81.292,44.450667)" />
    <path
       id="path99"
       d="M 3.7613,0 C 3.2994,0.1127 1.26901,0.75136 0,1.44638 V -1.44638 C 1.26901,-0.75136 3.2994,-0.1127 3.7613,0 Z"
       style="fill:#0000ff;fill-opacity:1;fill-rule:nonzero;stroke:#0000ff;stroke-width:0.204888;stroke-linecap:butt;stroke-linejoin:miter;stroke-miterlimit:10;stroke-dasharray:none;stroke-opacity:1"
       transform="matrix(0,-1.3333333,-1.3333333,0,244.75855,201.74415)" />
    <path
       id="path100"
       d="m 124.59247,-122.78969 -3.98511,1.99256"
       style="fill:none;stroke:#0000ff;stroke-width:0.204888;stroke-linecap:butt;stroke-linejoin:miter;stroke-miterlimit:10;stroke-dasharray:none;stroke-opacity:1"
       transform="matrix(1.3333333,0,0,-1.3333333,81.292,44.450667)" />
    <path
       id="path101"
       d="m 44.64706,-113.38727 v -22.81491"
       style="fill:none;stroke:#ff0000;stroke-width:0.204888;stroke-linecap:butt;stroke-linejoin:miter;stroke-miterlimit:10;stroke-dasharray:none;stroke-opacity:1"
       transform="matrix(1.3333333,0,0,-1.3333333,81.292,44.450667)" />
    <path
       id="path102"
       d="M 3.7613,0 C 3.2994,0.1127 1.26901,0.75136 0,1.44638 V -1.44638 C 1.26901,-0.75136 3.2994,-0.1127 3.7613,0 Z"
       style="fill:#ff0000;fill-opacity:1;fill-rule:nonzero;stroke:#ff0000;stroke-width:0.204888;stroke-linecap:butt;stroke-linejoin:miter;stroke-miterlimit:10;stroke-dasharray:none;stroke-opacity:1"
       transform="matrix(0,1.3333333,1.3333333,0,140.82141,226.05357)" />
    <path
       id="path103"
       d="m 53.8597,-113.38727 v -15.34276"
       style="fill:none;stroke:#ff0000;stroke-width:0.204888;stroke-linecap:butt;stroke-linejoin:miter;stroke-miterlimit:10;stroke-dasharray:none;stroke-opacity:1"
       transform="matrix(1.3333333,0,0,-1.3333333,81.292,44.450667)" />
    <path
       id="path104"
       d="M 3.7613,0 C 3.2994,0.1127 1.26901,0.75136 0,1.44638 V -1.44638 C 1.26901,-0.75136 3.2994,-0.1127 3.7613,0 Z"
       style="fill:#ff0000;fill-opacity:1;fill-rule:nonzero;stroke:#ff0000;stroke-width:0.204888;stroke-linecap:butt;stroke-linejoin:miter;stroke-miterlimit:10;stroke-dasharray:none;stroke-opacity:1"
       transform="matrix(0,1.3333333,1.3333333,0,153.10493,216.09071)" />
    <path
       id="path105"
       d="m 51.86714,-121.35744 3.98511,-1.99255"
       style="fill:none;stroke:#ff0000;stroke-width:0.204888;stroke-linecap:butt;stroke-linejoin:miter;stroke-miterlimit:10;stroke-dasharray:none;stroke-opacity:1"
       transform="matrix(1.3333333,0,0,-1.3333333,81.292,44.450667)" />
    <path
       id="path106"
       d="m 63.07231,-113.38727 v -7.8706"
       style="fill:none;stroke:#ff0000;stroke-width:0.204888;stroke-linecap:butt;stroke-linejoin:miter;stroke-miterlimit:10;stroke-dasharray:none;stroke-opacity:1"
       transform="matrix(1.3333333,0,0,-1.3333333,81.292,44.450667)" />
    <path
       id="path107"
       d="M 3.7613,0 C 3.2994,0.1127 1.26901,0.75136 0,1.44638 V -1.44638 C 1.26901,-0.75136 3.2994,-0.1127 3.7613,0 Z"
       style="fill:#ff0000;fill-opacity:1;fill-rule:nonzero;stroke:#ff0000;stroke-width:0.204888;stroke-linecap:butt;stroke-linejoin:miter;stroke-miterlimit:10;stroke-dasharray:none;stroke-opacity:1"
       transform="matrix(0,1.3333333,1.3333333,0,165.38841,206.12783)" />
    <path
       id="path108"
       d="m 61.07976,-116.4383 3.98511,-1.99255"
       style="fill:none;stroke:#ff0000;stroke-width:0.204888;stroke-linecap:butt;stroke-linejoin:miter;stroke-miterlimit:10;stroke-dasharray:none;stroke-opacity:1"
       transform="matrix(1.3333333,0,0,-1.3333333,81.292,44.450667)" />
  </g>
</svg>
