<?xml version="1.0" encoding="UTF-8" standalone="no"?>
<!-- Created with Inkscape (http://www.inkscape.org/) -->

<svg
   version="1.1"
   id="svg1"
   width="596.00067"
   height="326.71802"
   viewBox="0 0 596.00068 326.71802"
   xmlns="http://www.w3.org/2000/svg"
   xmlns:svg="http://www.w3.org/2000/svg">
  <defs
     id="defs1" />
  <g
     id="g1"
     transform="matrix(2.0139439,0,0,2.0240057,-6.8253689,-0.82019865)"
     style="stroke-width:0.495299">
    <path
       id="path1"
       d="M 0,-120.47397 H 155.9075 V 0 H 0 Z"
       style="fill:none;stroke:#000000;stroke-width:0.592147;stroke-linecap:butt;stroke-linejoin:miter;stroke-miterlimit:10;stroke-dasharray:none;stroke-opacity:1"
       transform="matrix(1.3333333,0,0,-1.3333333,45.014667,0.8)" />
    <text
       id="text1"
       xml:space="preserve"
       transform="matrix(1.3333333,0,0,1.3333333,49.708,14.085333)"
       style="stroke-width:0.495299"><tspan
         id="tspan1"
         style="font-variant:normal;font-weight:700;font-size:8.9663px;font-family:Arial;writing-mode:lr-tb;fill:#000000;fill-opacity:1;fill-rule:nonzero;stroke:none;stroke-width:0.495299"
         x="0"
         y="0">dpu_impl_pnkjyubmn1c</tspan></text>
    <text
       id="text2"
       xml:space="preserve"
       transform="matrix(1.3333333,0,0,1.3333333,22.378667,19.186667)"
       style="stroke-width:0.495299"><tspan
         id="tspan2"
         style="font-variant:normal;font-weight:normal;font-size:6.2764px;font-family:Arial;writing-mode:lr-tb;fill:#000000;fill-opacity:1;fill-rule:nonzero;stroke:none;stroke-width:0.495299"
         x="0"
         y="0">clk_0</tspan></text>
    <text
       id="text3"
       xml:space="preserve"
       transform="matrix(1.3333333,0,0,1.3333333,14.001333,31.470667)"
       style="stroke-width:0.495299"><tspan
         id="tspan3"
         style="font-variant:normal;font-weight:normal;font-size:6.2764px;font-family:Arial;writing-mode:lr-tb;fill:#000000;fill-opacity:1;fill-rule:nonzero;stroke:none;stroke-width:0.495299"
         x="0"
         y="0">rst_n_0</tspan></text>
    <text
       id="text4"
       xml:space="preserve"
       transform="matrix(1.3333333,0,0,1.3333333,2.8333333,43.753333)"
       style="stroke-width:0.495299"><tspan
         id="tspan4"
         style="font-variant:normal;font-weight:normal;font-size:6.2764px;font-family:Arial;writing-mode:lr-tb;fill:#000000;fill-opacity:1;fill-rule:nonzero;stroke:none;stroke-width:0.495299"
         x="0"
         y="0">instr_en_0</tspan></text>
    <text
       id="text5"
       xml:space="preserve"
       transform="matrix(1.3333333,0,0,1.3333333,16.796,56.037333)"
       style="stroke-width:0.495299"><tspan
         id="tspan5"
         style="font-variant:normal;font-weight:normal;font-size:6.2764px;font-family:Arial;writing-mode:lr-tb;fill:#000000;fill-opacity:1;fill-rule:nonzero;stroke:none;stroke-width:0.495299"
         x="0"
         y="0">instr_0</tspan></text>
    <text
       id="text6"
       xml:space="preserve"
       transform="matrix(1.3333333,0,0,1.3333333,3.7653333,68.321333)"
       style="stroke-width:0.495299"><tspan
         id="tspan6"
         style="font-variant:normal;font-weight:normal;font-size:6.2764px;font-family:Arial;writing-mode:lr-tb;fill:#000000;fill-opacity:1;fill-rule:nonzero;stroke:none;stroke-width:0.495299"
         x="0"
         y="0">activate_0</tspan></text>
    <text
       id="text7"
       xml:space="preserve"
       transform="matrix(1.3333333,0,0,1.3333333,22.378667,99.029333)"
       style="stroke-width:0.495299"><tspan
         id="tspan7"
         style="font-variant:normal;font-weight:normal;font-size:6.2764px;font-family:Arial;writing-mode:lr-tb;fill:#000000;fill-opacity:1;fill-rule:nonzero;stroke:none;stroke-width:0.495299"
         x="0"
         y="0">clk_1</tspan></text>
    <text
       id="text8"
       xml:space="preserve"
       transform="matrix(1.3333333,0,0,1.3333333,14.001333,111.31333)"
       style="stroke-width:0.495299"><tspan
         id="tspan8"
         style="font-variant:normal;font-weight:normal;font-size:6.2764px;font-family:Arial;writing-mode:lr-tb;fill:#000000;fill-opacity:1;fill-rule:nonzero;stroke:none;stroke-width:0.495299"
         x="0"
         y="0">rst_n_1</tspan></text>
    <text
       id="text9"
       xml:space="preserve"
       transform="matrix(1.3333333,0,0,1.3333333,2.8333333,123.596)"
       style="stroke-width:0.495299"><tspan
         id="tspan9"
         style="font-variant:normal;font-weight:normal;font-size:6.2764px;font-family:Arial;writing-mode:lr-tb;fill:#000000;fill-opacity:1;fill-rule:nonzero;stroke:none;stroke-width:0.495299"
         x="0"
         y="0">instr_en_1</tspan></text>
    <text
       id="text10"
       xml:space="preserve"
       transform="matrix(1.3333333,0,0,1.3333333,16.796,135.88)"
       style="stroke-width:0.495299"><tspan
         id="tspan10"
         style="font-variant:normal;font-weight:normal;font-size:6.2764px;font-family:Arial;writing-mode:lr-tb;fill:#000000;fill-opacity:1;fill-rule:nonzero;stroke:none;stroke-width:0.495299"
         x="0"
         y="0">instr_1</tspan></text>
    <text
       id="text11"
       xml:space="preserve"
       transform="matrix(1.3333333,0,0,1.3333333,3.7653333,148.164)"
       style="stroke-width:0.495299"><tspan
         id="tspan11"
         style="font-variant:normal;font-weight:normal;font-size:6.2764px;font-family:Arial;writing-mode:lr-tb;fill:#000000;fill-opacity:1;fill-rule:nonzero;stroke:none;stroke-width:0.495299"
         x="0"
         y="0">activate_1</tspan></text>
    <text
       id="text12"
       xml:space="preserve"
       transform="matrix(1.3333333,0,0,1.3333333,255.992,19.186667)"
       style="stroke-width:0.495299"><tspan
         id="tspan12"
         style="font-variant:normal;font-weight:normal;font-size:6.2764px;font-family:Arial;writing-mode:lr-tb;fill:#000000;fill-opacity:1;fill-rule:nonzero;stroke:none;stroke-width:0.495299"
         x="0"
         y="0">word_in_0</tspan></text>
    <text
       id="text13"
       xml:space="preserve"
       transform="matrix(1.3333333,0,0,1.3333333,255.992,31.470667)"
       style="stroke-width:0.495299"><tspan
         id="tspan13"
         style="font-variant:normal;font-weight:normal;font-size:6.2764px;font-family:Arial;writing-mode:lr-tb;fill:#000000;fill-opacity:1;fill-rule:nonzero;stroke:none;stroke-width:0.495299"
         x="0"
         y="0">word_out_0</tspan></text>
    <text
       id="text14"
       xml:space="preserve"
       transform="matrix(1.3333333,0,0,1.3333333,255.992,56.037333)"
       style="stroke-width:0.495299"><tspan
         id="tspan14"
         style="font-variant:normal;font-weight:normal;font-size:6.2764px;font-family:Arial;writing-mode:lr-tb;fill:#000000;fill-opacity:1;fill-rule:nonzero;stroke:none;stroke-width:0.495299"
         x="0"
         y="0">bulk_in_0</tspan></text>
    <text
       id="text15"
       xml:space="preserve"
       transform="matrix(1.3333333,0,0,1.3333333,255.992,68.321333)"
       style="stroke-width:0.495299"><tspan
         id="tspan15"
         style="font-variant:normal;font-weight:normal;font-size:6.2764px;font-family:Arial;writing-mode:lr-tb;fill:#000000;fill-opacity:1;fill-rule:nonzero;stroke:none;stroke-width:0.495299"
         x="0"
         y="0">bulk_out_0</tspan></text>
    <text
       id="text16"
       xml:space="preserve"
       transform="matrix(1.3333333,0,0,1.3333333,255.992,99.029333)"
       style="stroke-width:0.495299"><tspan
         id="tspan16"
         style="font-variant:normal;font-weight:normal;font-size:6.2764px;font-family:Arial;writing-mode:lr-tb;fill:#000000;fill-opacity:1;fill-rule:nonzero;stroke:none;stroke-width:0.495299"
         x="0"
         y="0">word_in_1</tspan></text>
    <text
       id="text17"
       xml:space="preserve"
       transform="matrix(1.3333333,0,0,1.3333333,255.992,111.31333)"
       style="stroke-width:0.495299"><tspan
         id="tspan17"
         style="font-variant:normal;font-weight:normal;font-size:6.2764px;font-family:Arial;writing-mode:lr-tb;fill:#000000;fill-opacity:1;fill-rule:nonzero;stroke:none;stroke-width:0.495299"
         x="0"
         y="0">word_out_1</tspan></text>
    <text
       id="text18"
       xml:space="preserve"
       transform="matrix(1.3333333,0,0,1.3333333,255.992,135.88)"
       style="stroke-width:0.495299"><tspan
         id="tspan18"
         style="font-variant:normal;font-weight:normal;font-size:6.2764px;font-family:Arial;writing-mode:lr-tb;fill:#000000;fill-opacity:1;fill-rule:nonzero;stroke:none;stroke-width:0.495299"
         x="0"
         y="0">bulk_in_1</tspan></text>
    <text
       id="text19"
       xml:space="preserve"
       transform="matrix(1.3333333,0,0,1.3333333,255.992,148.164)"
       style="stroke-width:0.495299"><tspan
         id="tspan19"
         style="font-variant:normal;font-weight:normal;font-size:6.2764px;font-family:Arial;writing-mode:lr-tb;fill:#000000;fill-opacity:1;fill-rule:nonzero;stroke:none;stroke-width:0.495299"
         x="0"
         y="0">bulk_out_1</tspan></text>
    <path
       id="path19"
       d="M -24.90692,-15.94505 H -4.58284"
       style="fill:none;stroke:#000000;stroke-width:0.19738;stroke-linecap:butt;stroke-linejoin:miter;stroke-miterlimit:10;stroke-dasharray:none;stroke-opacity:1"
       transform="matrix(1.3333333,0,0,-1.3333333,45.014667,0.8)" />
    <path
       id="path20"
       d="M 3.7613,0 C 3.2994,0.1127 1.26901,0.75136 0,1.44638 V -1.44638 C 1.26901,-0.75136 3.2994,-0.1127 3.7613,0 Z"
       style="fill:#000000;fill-opacity:1;fill-rule:nonzero;stroke:#000000;stroke-width:0.19738;stroke-linecap:butt;stroke-linejoin:miter;stroke-miterlimit:10;stroke-dasharray:none;stroke-opacity:1"
       transform="matrix(1.3333333,0,0,-1.3333333,38.904213,22.060067)" />
    <path
       id="path21"
       d="M -24.90692,-25.15768 H -4.58284"
       style="fill:none;stroke:#000000;stroke-width:0.19738;stroke-linecap:butt;stroke-linejoin:miter;stroke-miterlimit:10;stroke-dasharray:none;stroke-opacity:1"
       transform="matrix(1.3333333,0,0,-1.3333333,45.014667,0.8)" />
    <path
       id="path22"
       d="M 3.7613,0 C 3.2994,0.1127 1.26901,0.75136 0,1.44638 V -1.44638 C 1.26901,-0.75136 3.2994,-0.1127 3.7613,0 Z"
       style="fill:#000000;fill-opacity:1;fill-rule:nonzero;stroke:#000000;stroke-width:0.19738;stroke-linecap:butt;stroke-linejoin:miter;stroke-miterlimit:10;stroke-dasharray:none;stroke-opacity:1"
       transform="matrix(1.3333333,0,0,-1.3333333,38.904213,34.343573)" />
    <path
       id="path23"
       d="M -24.90692,-34.37032 H -4.58284"
       style="fill:none;stroke:#000000;stroke-width:0.19738;stroke-linecap:butt;stroke-linejoin:miter;stroke-miterlimit:10;stroke-dasharray:none;stroke-opacity:1"
       transform="matrix(1.3333333,0,0,-1.3333333,45.014667,0.8)" />
    <path
       id="path24"
       d="M 3.7613,0 C 3.2994,0.1127 1.26901,0.75136 0,1.44638 V -1.44638 C 1.26901,-0.75136 3.2994,-0.1127 3.7613,0 Z"
       style="fill:#000000;fill-opacity:1;fill-rule:nonzero;stroke:#000000;stroke-width:0.19738;stroke-linecap:butt;stroke-linejoin:miter;stroke-miterlimit:10;stroke-dasharray:none;stroke-opacity:1"
       transform="matrix(1.3333333,0,0,-1.3333333,38.904213,46.627093)" />
    <path
       id="path25"
       d="M -24.90692,-52.79556 H -4.58284"
       style="fill:none;stroke:#000000;stroke-width:0.19738;stroke-linecap:butt;stroke-linejoin:miter;stroke-miterlimit:10;stroke-dasharray:none;stroke-opacity:1"
       transform="matrix(1.3333333,0,0,-1.3333333,45.014667,0.8)" />
    <path
       id="path26"
       d="M 3.7613,0 C 3.2994,0.1127 1.26901,0.75136 0,1.44638 V -1.44638 C 1.26901,-0.75136 3.2994,-0.1127 3.7613,0 Z"
       style="fill:#000000;fill-opacity:1;fill-rule:nonzero;stroke:#000000;stroke-width:0.19738;stroke-linecap:butt;stroke-linejoin:miter;stroke-miterlimit:10;stroke-dasharray:none;stroke-opacity:1"
       transform="matrix(1.3333333,0,0,-1.3333333,38.904213,71.19408)" />
    <path
       id="path27"
       d="M -24.90692,-75.82713 H -4.58284"
       style="fill:none;stroke:#ff0000;stroke-width:0.19738;stroke-linecap:butt;stroke-linejoin:miter;stroke-miterlimit:10;stroke-dasharray:none;stroke-opacity:1"
       transform="matrix(1.3333333,0,0,-1.3333333,45.014667,0.8)" />
    <path
       id="path28"
       d="M 3.7613,0 C 3.2994,0.1127 1.26901,0.75136 0,1.44638 V -1.44638 C 1.26901,-0.75136 3.2994,-0.1127 3.7613,0 Z"
       style="fill:#ff0000;fill-opacity:1;fill-rule:nonzero;stroke:#ff0000;stroke-width:0.19738;stroke-linecap:butt;stroke-linejoin:miter;stroke-miterlimit:10;stroke-dasharray:none;stroke-opacity:1"
       transform="matrix(1.3333333,0,0,-1.3333333,38.904213,101.90284)" />
    <path
       id="path29"
       d="M -24.90692,-85.03975 H -4.58284"
       style="fill:none;stroke:#ff0000;stroke-width:0.19738;stroke-linecap:butt;stroke-linejoin:miter;stroke-miterlimit:10;stroke-dasharray:none;stroke-opacity:1"
       transform="matrix(1.3333333,0,0,-1.3333333,45.014667,0.8)" />
    <path
       id="path30"
       d="M 3.7613,0 C 3.2994,0.1127 1.26901,0.75136 0,1.44638 V -1.44638 C 1.26901,-0.75136 3.2994,-0.1127 3.7613,0 Z"
       style="fill:#ff0000;fill-opacity:1;fill-rule:nonzero;stroke:#ff0000;stroke-width:0.19738;stroke-linecap:butt;stroke-linejoin:miter;stroke-miterlimit:10;stroke-dasharray:none;stroke-opacity:1"
       transform="matrix(1.3333333,0,0,-1.3333333,38.904213,114.18633)" />
    <path
       id="path31"
       d="M -24.90692,-94.25238 H -4.58284"
       style="fill:none;stroke:#ff0000;stroke-width:0.19738;stroke-linecap:butt;stroke-linejoin:miter;stroke-miterlimit:10;stroke-dasharray:none;stroke-opacity:1"
       transform="matrix(1.3333333,0,0,-1.3333333,45.014667,0.8)" />
    <path
       id="path32"
       d="M 3.7613,0 C 3.2994,0.1127 1.26901,0.75136 0,1.44638 V -1.44638 C 1.26901,-0.75136 3.2994,-0.1127 3.7613,0 Z"
       style="fill:#ff0000;fill-opacity:1;fill-rule:nonzero;stroke:#ff0000;stroke-width:0.19738;stroke-linecap:butt;stroke-linejoin:miter;stroke-miterlimit:10;stroke-dasharray:none;stroke-opacity:1"
       transform="matrix(1.3333333,0,0,-1.3333333,38.904213,126.46984)" />
    <path
       id="path33"
       d="M -24.90692,-112.67763 H -4.58284"
       style="fill:none;stroke:#ff0000;stroke-width:0.19738;stroke-linecap:butt;stroke-linejoin:miter;stroke-miterlimit:10;stroke-dasharray:none;stroke-opacity:1"
       transform="matrix(1.3333333,0,0,-1.3333333,45.014667,0.8)" />
    <path
       id="path34"
       d="M 3.7613,0 C 3.2994,0.1127 1.26901,0.75136 0,1.44638 V -1.44638 C 1.26901,-0.75136 3.2994,-0.1127 3.7613,0 Z"
       style="fill:#ff0000;fill-opacity:1;fill-rule:nonzero;stroke:#ff0000;stroke-width:0.19738;stroke-linecap:butt;stroke-linejoin:miter;stroke-miterlimit:10;stroke-dasharray:none;stroke-opacity:1"
       transform="matrix(1.3333333,0,0,-1.3333333,38.904213,151.03684)" />
    <path
       id="path35"
       d="M -24.90692,-43.58295 H -4.58284"
       style="fill:none;stroke:#000000;stroke-width:0.19738;stroke-linecap:butt;stroke-linejoin:miter;stroke-miterlimit:10;stroke-dasharray:none;stroke-opacity:1"
       transform="matrix(1.3333333,0,0,-1.3333333,45.014667,0.8)" />
    <path
       id="path36"
       d="M 3.7613,0 C 3.2994,0.1127 1.26901,0.75136 0,1.44638 V -1.44638 C 1.26901,-0.75136 3.2994,-0.1127 3.7613,0 Z"
       style="fill:#000000;fill-opacity:1;fill-rule:nonzero;stroke:#000000;stroke-width:0.19738;stroke-linecap:butt;stroke-linejoin:miter;stroke-miterlimit:10;stroke-dasharray:none;stroke-opacity:1"
       transform="matrix(1.3333333,0,0,-1.3333333,38.904213,58.9106)" />
    <path
       id="path37"
       d="m -13.44974,-45.5755 1.99256,3.9851"
       style="fill:none;stroke:#000000;stroke-width:0.19738;stroke-linecap:butt;stroke-linejoin:miter;stroke-miterlimit:10;stroke-dasharray:none;stroke-opacity:1"
       transform="matrix(1.3333333,0,0,-1.3333333,45.014667,0.8)" />
    <path
       id="path38"
       d="M -24.90692,-103.46501 H -4.58284"
       style="fill:none;stroke:#ff0000;stroke-width:0.19738;stroke-linecap:butt;stroke-linejoin:miter;stroke-miterlimit:10;stroke-dasharray:none;stroke-opacity:1"
       transform="matrix(1.3333333,0,0,-1.3333333,45.014667,0.8)" />
    <path
       id="path39"
       d="M 3.7613,0 C 3.2994,0.1127 1.26901,0.75136 0,1.44638 V -1.44638 C 1.26901,-0.75136 3.2994,-0.1127 3.7613,0 Z"
       style="fill:#ff0000;fill-opacity:1;fill-rule:nonzero;stroke:#ff0000;stroke-width:0.19738;stroke-linecap:butt;stroke-linejoin:miter;stroke-miterlimit:10;stroke-dasharray:none;stroke-opacity:1"
       transform="matrix(1.3333333,0,0,-1.3333333,38.904213,138.75335)" />
    <path
       id="path40"
       d="m -13.44974,-105.45757 1.99256,3.98511"
       style="fill:none;stroke:#ff0000;stroke-width:0.19738;stroke-linecap:butt;stroke-linejoin:miter;stroke-miterlimit:10;stroke-dasharray:none;stroke-opacity:1"
       transform="matrix(1.3333333,0,0,-1.3333333,45.014667,0.8)" />
    <path
       id="path41"
       d="M 180.81442,-15.94505 H 160.49036"
       style="fill:none;stroke:#000000;stroke-width:0.19738;stroke-linecap:butt;stroke-linejoin:miter;stroke-miterlimit:10;stroke-dasharray:none;stroke-opacity:1"
       transform="matrix(1.3333333,0,0,-1.3333333,45.014667,0.8)" />
    <path
       id="path42"
       d="M 3.7613,0 C 3.2994,0.1127 1.26901,0.75136 0,1.44638 V -1.44638 C 1.26901,-0.75136 3.2994,-0.1127 3.7613,0 Z"
       style="fill:#000000;fill-opacity:1;fill-rule:nonzero;stroke:#000000;stroke-width:0.19738;stroke-linecap:butt;stroke-linejoin:miter;stroke-miterlimit:10;stroke-dasharray:none;stroke-opacity:1"
       transform="matrix(-1.3333333,0,0,1.3333333,259.00181,22.060067)" />
    <path
       id="path43"
       d="m 169.35725,-13.9525 -1.99255,-3.9851"
       style="fill:none;stroke:#000000;stroke-width:0.19738;stroke-linecap:butt;stroke-linejoin:miter;stroke-miterlimit:10;stroke-dasharray:none;stroke-opacity:1"
       transform="matrix(1.3333333,0,0,-1.3333333,45.014667,0.8)" />
    <path
       id="path44"
       d="M 180.81442,-75.82713 H 160.49036"
       style="fill:none;stroke:#000000;stroke-width:0.19738;stroke-linecap:butt;stroke-linejoin:miter;stroke-miterlimit:10;stroke-dasharray:none;stroke-opacity:1"
       transform="matrix(1.3333333,0,0,-1.3333333,45.014667,0.8)" />
    <path
       id="path45"
       d="M 3.7613,0 C 3.2994,0.1127 1.26901,0.75136 0,1.44638 V -1.44638 C 1.26901,-0.75136 3.2994,-0.1127 3.7613,0 Z"
       style="fill:#000000;fill-opacity:1;fill-rule:nonzero;stroke:#000000;stroke-width:0.19738;stroke-linecap:butt;stroke-linejoin:miter;stroke-miterlimit:10;stroke-dasharray:none;stroke-opacity:1"
       transform="matrix(-1.3333333,0,0,1.3333333,259.00181,101.90284)" />
    <path
       id="path46"
       d="m 169.35725,-73.83458 -1.99255,-3.98511"
       style="fill:none;stroke:#000000;stroke-width:0.19738;stroke-linecap:butt;stroke-linejoin:miter;stroke-miterlimit:10;stroke-dasharray:none;stroke-opacity:1"
       transform="matrix(1.3333333,0,0,-1.3333333,45.014667,0.8)" />
    <path
       id="path47"
       d="M 180.81442,-43.58295 H 160.49036"
       style="fill:none;stroke:#ff0000;stroke-width:0.19738;stroke-linecap:butt;stroke-linejoin:miter;stroke-miterlimit:10;stroke-dasharray:none;stroke-opacity:1"
       transform="matrix(1.3333333,0,0,-1.3333333,45.014667,0.8)" />
    <path
       id="path48"
       d="M 3.7613,0 C 3.2994,0.1127 1.26901,0.75136 0,1.44638 V -1.44638 C 1.26901,-0.75136 3.2994,-0.1127 3.7613,0 Z"
       style="fill:#ff0000;fill-opacity:1;fill-rule:nonzero;stroke:#ff0000;stroke-width:0.19738;stroke-linecap:butt;stroke-linejoin:miter;stroke-miterlimit:10;stroke-dasharray:none;stroke-opacity:1"
       transform="matrix(-1.3333333,0,0,1.3333333,259.00181,58.9106)" />
    <path
       id="path49"
       d="m 169.35725,-41.5904 -1.99255,-3.9851"
       style="fill:none;stroke:#ff0000;stroke-width:0.19738;stroke-linecap:butt;stroke-linejoin:miter;stroke-miterlimit:10;stroke-dasharray:none;stroke-opacity:1"
       transform="matrix(1.3333333,0,0,-1.3333333,45.014667,0.8)" />
    <path
       id="path50"
       d="M 180.81442,-103.46501 H 160.49036"
       style="fill:none;stroke:#ff0000;stroke-width:0.19738;stroke-linecap:butt;stroke-linejoin:miter;stroke-miterlimit:10;stroke-dasharray:none;stroke-opacity:1"
       transform="matrix(1.3333333,0,0,-1.3333333,45.014667,0.8)" />
    <path
       id="path51"
       d="M 3.7613,0 C 3.2994,0.1127 1.26901,0.75136 0,1.44638 V -1.44638 C 1.26901,-0.75136 3.2994,-0.1127 3.7613,0 Z"
       style="fill:#ff0000;fill-opacity:1;fill-rule:nonzero;stroke:#ff0000;stroke-width:0.19738;stroke-linecap:butt;stroke-linejoin:miter;stroke-miterlimit:10;stroke-dasharray:none;stroke-opacity:1"
       transform="matrix(-1.3333333,0,0,1.3333333,259.00181,138.75335)" />
    <path
       id="path52"
       d="m 169.35725,-101.47246 -1.99255,-3.98511"
       style="fill:none;stroke:#ff0000;stroke-width:0.19738;stroke-linecap:butt;stroke-linejoin:miter;stroke-miterlimit:10;stroke-dasharray:none;stroke-opacity:1"
       transform="matrix(1.3333333,0,0,-1.3333333,45.014667,0.8)" />
    <path
       id="path53"
       d="m 155.9075,-25.15768 h 20.32407"
       style="fill:none;stroke:#000000;stroke-width:0.19738;stroke-linecap:butt;stroke-linejoin:miter;stroke-miterlimit:10;stroke-dasharray:none;stroke-opacity:1"
       transform="matrix(1.3333333,0,0,-1.3333333,45.014667,0.8)" />
    <path
       id="path54"
       d="M 3.7613,0 C 3.2994,0.1127 1.26901,0.75136 0,1.44638 V -1.44638 C 1.26901,-0.75136 3.2994,-0.1127 3.7613,0 Z"
       style="fill:#000000;fill-opacity:1;fill-rule:nonzero;stroke:#000000;stroke-width:0.19738;stroke-linecap:butt;stroke-linejoin:miter;stroke-miterlimit:10;stroke-dasharray:none;stroke-opacity:1"
       transform="matrix(1.3333333,0,0,-1.3333333,279.99009,34.343573)" />
    <path
       id="path55"
       d="m 167.36467,-27.15024 1.99255,3.98511"
       style="fill:none;stroke:#000000;stroke-width:0.19738;stroke-linecap:butt;stroke-linejoin:miter;stroke-miterlimit:10;stroke-dasharray:none;stroke-opacity:1"
       transform="matrix(1.3333333,0,0,-1.3333333,45.014667,0.8)" />
    <path
       id="path56"
       d="m 155.9075,-52.79556 h 20.32407"
       style="fill:none;stroke:#ff0000;stroke-width:0.19738;stroke-linecap:butt;stroke-linejoin:miter;stroke-miterlimit:10;stroke-dasharray:none;stroke-opacity:1"
       transform="matrix(1.3333333,0,0,-1.3333333,45.014667,0.8)" />
    <path
       id="path57"
       d="M 3.7613,0 C 3.2994,0.1127 1.26901,0.75136 0,1.44638 V -1.44638 C 1.26901,-0.75136 3.2994,-0.1127 3.7613,0 Z"
       style="fill:#ff0000;fill-opacity:1;fill-rule:nonzero;stroke:#ff0000;stroke-width:0.19738;stroke-linecap:butt;stroke-linejoin:miter;stroke-miterlimit:10;stroke-dasharray:none;stroke-opacity:1"
       transform="matrix(1.3333333,0,0,-1.3333333,279.99009,71.19408)" />
    <path
       id="path58"
       d="m 167.36467,-54.78812 1.99255,3.98511"
       style="fill:none;stroke:#ff0000;stroke-width:0.19738;stroke-linecap:butt;stroke-linejoin:miter;stroke-miterlimit:10;stroke-dasharray:none;stroke-opacity:1"
       transform="matrix(1.3333333,0,0,-1.3333333,45.014667,0.8)" />
    <path
       id="path59"
       d="m 155.9075,-112.67763 h 20.32407"
       style="fill:none;stroke:#ff0000;stroke-width:0.19738;stroke-linecap:butt;stroke-linejoin:miter;stroke-miterlimit:10;stroke-dasharray:none;stroke-opacity:1"
       transform="matrix(1.3333333,0,0,-1.3333333,45.014667,0.8)" />
    <path
       id="path60"
       d="M 3.7613,0 C 3.2994,0.1127 1.26901,0.75136 0,1.44638 V -1.44638 C 1.26901,-0.75136 3.2994,-0.1127 3.7613,0 Z"
       style="fill:#ff0000;fill-opacity:1;fill-rule:nonzero;stroke:#ff0000;stroke-width:0.19738;stroke-linecap:butt;stroke-linejoin:miter;stroke-miterlimit:10;stroke-dasharray:none;stroke-opacity:1"
       transform="matrix(1.3333333,0,0,-1.3333333,279.99009,151.03684)" />
    <path
       id="path61"
       d="m 167.36467,-114.67018 1.99255,3.98511"
       style="fill:none;stroke:#ff0000;stroke-width:0.19738;stroke-linecap:butt;stroke-linejoin:miter;stroke-miterlimit:10;stroke-dasharray:none;stroke-opacity:1"
       transform="matrix(1.3333333,0,0,-1.3333333,45.014667,0.8)" />
    <path
       id="path62"
       d="m 155.9075,-85.03975 h 20.32407"
       style="fill:none;stroke:#ff0000;stroke-width:0.19738;stroke-linecap:butt;stroke-linejoin:miter;stroke-miterlimit:10;stroke-dasharray:none;stroke-opacity:1"
       transform="matrix(1.3333333,0,0,-1.3333333,45.014667,0.8)" />
    <path
       id="path63"
       d="M 3.7613,0 C 3.2994,0.1127 1.26901,0.75136 0,1.44638 V -1.44638 C 1.26901,-0.75136 3.2994,-0.1127 3.7613,0 Z"
       style="fill:#ff0000;fill-opacity:1;fill-rule:nonzero;stroke:#ff0000;stroke-width:0.19738;stroke-linecap:butt;stroke-linejoin:miter;stroke-miterlimit:10;stroke-dasharray:none;stroke-opacity:1"
       transform="matrix(1.3333333,0,0,-1.3333333,279.99009,114.18633)" />
    <path
       id="path64"
       d="m 167.36467,-87.0323 1.99255,3.9851"
       style="fill:none;stroke:#ff0000;stroke-width:0.19738;stroke-linecap:butt;stroke-linejoin:miter;stroke-miterlimit:10;stroke-dasharray:none;stroke-opacity:1"
       transform="matrix(1.3333333,0,0,-1.3333333,45.014667,0.8)" />
    <path
       id="path65"
       d="m 100.6316,-26.0437 19.84238,-9.92119 v -19.84239 l -19.84238,-9.92119 v 12.4015 l 8.92905,7.44089 v 0 l -8.92905,7.44088 z"
       style="fill:none;stroke:#000000;stroke-width:0.39476;stroke-linecap:butt;stroke-linejoin:miter;stroke-miterlimit:10;stroke-dasharray:none;stroke-opacity:1"
       transform="matrix(1.3333333,0,0,-1.3333333,45.014667,0.8)" />
    <text
       id="text65"
       xml:space="preserve"
       transform="matrix(0,-0.83333333,0.83333333,0,200.73767,68.522333)"
       style="stroke-width:0.495299"><tspan
         id="tspan65"
         style="font-variant:normal;font-weight:normal;font-size:8.0697px;font-family:Arial;writing-mode:lr-tb;fill:#000000;fill-opacity:1;fill-rule:nonzero;stroke:none;stroke-width:0.495299"
         x="0"
         y="0">ALU</tspan></text>
    <path
       id="path66"
       d="m 94.96233,-26.66365 h -7.44098 v -11.16161 h 7.44098 z"
       style="fill:none;stroke:#000000;stroke-width:0.19738;stroke-linecap:butt;stroke-linejoin:miter;stroke-miterlimit:10;stroke-dasharray:none;stroke-opacity:1"
       transform="matrix(1.3333333,0,0,-1.3333333,45.014667,0.8)" />
    <path
       id="path67"
       d="m 87.52135,-34.84882 1.11618,-1.11616 -1.11618,-1.11618"
       style="fill:none;stroke:#000000;stroke-width:0.19738;stroke-linecap:butt;stroke-linejoin:miter;stroke-miterlimit:10;stroke-dasharray:none;stroke-opacity:1"
       transform="matrix(1.3333333,0,0,-1.3333333,45.014667,0.8)" />
    <path
       id="path68"
       d="m 94.96233,-53.94691 h -7.44098 v -11.16161 h 7.44098 z"
       style="fill:none;stroke:#000000;stroke-width:0.19738;stroke-linecap:butt;stroke-linejoin:miter;stroke-miterlimit:10;stroke-dasharray:none;stroke-opacity:1"
       transform="matrix(1.3333333,0,0,-1.3333333,45.014667,0.8)" />
    <path
       id="path69"
       d="m 87.52135,-62.13208 1.11618,-1.11617 -1.11618,-1.11618"
       style="fill:none;stroke:#000000;stroke-width:0.19738;stroke-linecap:butt;stroke-linejoin:miter;stroke-miterlimit:10;stroke-dasharray:none;stroke-opacity:1"
       transform="matrix(1.3333333,0,0,-1.3333333,45.014667,0.8)" />
    <path
       id="path70"
       d="M 155.9075,-15.94505 H 77.5998 v -12.57888 h 5.3387"
       style="fill:none;stroke:#000000;stroke-width:0.19738;stroke-linecap:butt;stroke-linejoin:miter;stroke-miterlimit:10;stroke-dasharray:none;stroke-opacity:1"
       transform="matrix(1.3333333,0,0,-1.3333333,45.014667,0.8)" />
    <path
       id="path71"
       d="M 3.7613,0 C 3.2994,0.1127 1.26901,0.75136 0,1.44638 V -1.44638 C 1.26901,-0.75136 3.2994,-0.1127 3.7613,0 Z"
       style="fill:#000000;fill-opacity:1;fill-rule:nonzero;stroke:#000000;stroke-width:0.19738;stroke-linecap:butt;stroke-linejoin:miter;stroke-miterlimit:10;stroke-dasharray:none;stroke-opacity:1"
       transform="matrix(1.3333333,0,0,-1.3333333,155.59933,38.831907)" />
    <path
       id="path72"
       d="m 94.96233,-32.24445 h 5.66927"
       style="fill:none;stroke:#000000;stroke-width:0.19738;stroke-linecap:butt;stroke-linejoin:miter;stroke-miterlimit:10;stroke-dasharray:none;stroke-opacity:1"
       transform="matrix(1.3333333,0,0,-1.3333333,45.014667,0.8)" />
    <path
       id="path73"
       d="M 155.9075,-75.82713 H 77.5998 v 20.01994 h 5.3387"
       style="fill:none;stroke:#000000;stroke-width:0.19738;stroke-linecap:butt;stroke-linejoin:miter;stroke-miterlimit:10;stroke-dasharray:none;stroke-opacity:1"
       transform="matrix(1.3333333,0,0,-1.3333333,45.014667,0.8)" />
    <path
       id="path74"
       d="M 3.7613,0 C 3.2994,0.1127 1.26901,0.75136 0,1.44638 V -1.44638 C 1.26901,-0.75136 3.2994,-0.1127 3.7613,0 Z"
       style="fill:#000000;fill-opacity:1;fill-rule:nonzero;stroke:#000000;stroke-width:0.19738;stroke-linecap:butt;stroke-linejoin:miter;stroke-miterlimit:10;stroke-dasharray:none;stroke-opacity:1"
       transform="matrix(1.3333333,0,0,-1.3333333,155.59933,75.209587)" />
    <path
       id="path75"
       d="m 94.96233,-59.52771 h 5.66927"
       style="fill:none;stroke:#000000;stroke-width:0.19738;stroke-linecap:butt;stroke-linejoin:miter;stroke-miterlimit:10;stroke-dasharray:none;stroke-opacity:1"
       transform="matrix(1.3333333,0,0,-1.3333333,45.014667,0.8)" />
    <path
       id="path76"
       d="m 120.47398,-45.88608 h 14.1734 v 20.7284 h 16.67727"
       style="fill:none;stroke:#000000;stroke-width:0.19738;stroke-linecap:butt;stroke-linejoin:miter;stroke-miterlimit:10;stroke-dasharray:none;stroke-opacity:1"
       transform="matrix(1.3333333,0,0,-1.3333333,45.014667,0.8)" />
    <path
       id="path77"
       d="M 3.7613,0 C 3.2994,0.1127 1.26901,0.75136 0,1.44638 V -1.44638 C 1.26901,-0.75136 3.2994,-0.1127 3.7613,0 Z"
       style="fill:#000000;fill-opacity:1;fill-rule:nonzero;stroke:#000000;stroke-width:0.19738;stroke-linecap:butt;stroke-linejoin:miter;stroke-miterlimit:10;stroke-dasharray:none;stroke-opacity:1"
       transform="matrix(1.3333333,0,0,-1.3333333,246.78087,34.343573)" />
    <path
       id="path78"
       d="M 21.2601,-29.82162 H 48.78273 V -57.34425 H 21.2601 Z"
       style="fill:none;stroke:#000000;stroke-width:0.39476;stroke-linecap:butt;stroke-linejoin:miter;stroke-miterlimit:10;stroke-dasharray:none;stroke-opacity:1"
       transform="matrix(1.3333333,0,0,-1.3333333,45.014667,0.8)" />
    <text
       id="text78"
       xml:space="preserve"
       transform="matrix(0.83333333,0,0,0.83333333,81.618167,56.043167)"
       style="stroke-width:0.495299"><tspan
         id="tspan78"
         style="font-variant:normal;font-weight:normal;font-size:8.0697px;font-family:Arial;writing-mode:lr-tb;fill:#000000;fill-opacity:1;fill-rule:nonzero;stroke:none;stroke-width:0.495299"
         x="0"
         y="0">control</tspan><tspan
         id="tspan79"
         style="font-variant:normal;font-weight:normal;font-size:8.0697px;font-family:Arial;writing-mode:lr-tb;fill:#000000;fill-opacity:1;fill-rule:nonzero;stroke:none;stroke-width:0.495299"
         x="3.813"
         y="10.959">logic</tspan></text>
    <path
       id="path79"
       d="m 0,-34.37032 21.2601,-0.0384 M 0,-43.58295 H 21.2601 M 0,-52.79556 21.2601,-52.75714 M 0,-25.15768 h 28.14075 v -4.66394 M 0,-15.94505 h 41.90207 v -13.87657"
       style="fill:none;stroke:#000000;stroke-width:0.19738;stroke-linecap:butt;stroke-linejoin:miter;stroke-miterlimit:10;stroke-dasharray:none;stroke-opacity:1"
       transform="matrix(1.3333333,0,0,-1.3333333,45.014667,0.8)" />
    <path
       id="path80"
       d="m 48.78273,-43.58295 h 11.33855 v -45.53172 h 50.43152 v 0 23.76396"
       style="fill:none;stroke:#000000;stroke-width:0.19738;stroke-linecap:butt;stroke-linejoin:miter;stroke-miterlimit:10;stroke-dasharray:none;stroke-opacity:1"
       transform="matrix(1.3333333,0,0,-1.3333333,45.014667,0.8)" />
    <path
       id="path81"
       d="M 3.7613,0 C 3.2994,0.1127 1.26901,0.75136 0,1.44638 V -1.44638 C 1.26901,-0.75136 3.2994,-0.1127 3.7613,0 Z"
       style="fill:#000000;fill-opacity:1;fill-rule:nonzero;stroke:#000000;stroke-width:0.19738;stroke-linecap:butt;stroke-linejoin:miter;stroke-miterlimit:10;stroke-dasharray:none;stroke-opacity:1"
       transform="matrix(0,-1.3333333,-1.3333333,0,192.4184,87.93428)" />
  </g>
</svg>
